name Walk8.mot
datacolumns 19
datarows 12
range 3.51100000 3.52200000
endheader

                time	   L_ground_force_vx	   L_ground_force_vy	   L_ground_force_vz	   L_ground_force_px	   L_ground_force_py	   L_ground_force_pz	   R_ground_force_vx	   R_ground_force_vy	   R_ground_force_vz	   R_ground_force_px	   R_ground_force_py	   R_ground_force_pz	   L_ground_torque_x	   L_ground_torque_y	   L_ground_torque_z	   R_ground_torque_x	   R_ground_torque_y	   R_ground_torque_z	
          3.51100000	         -9.69967285	         88.37724287	         -3.34181309	          0.00410751	          0.00000000	         -0.00031340	         -0.00000000	          0.00000000	          0.00000000	          0.00000000	          0.00000000	          0.00000000	          0.00000000	          0.19116405	          0.00000000	          0.00000000	          0.00000000	          0.00000000	
          3.51200000	        -10.88161409	         97.46854750	         -3.87524813	         -0.01677736	          0.00000000	         -0.00300465	         -0.00000000	          0.00000000	          0.00000000	          0.00000000	          0.00000000	          0.00000000	          0.00000000	          0.20701361	          0.00000000	          0.00000000	          0.00000000	          0.00000000	
          3.51300000	        -12.12065489	        106.85428607	         -4.40867055	         -0.03758796	          0.00000000	         -0.00568824	         -0.00000000	          0.00000000	          0.00000000	          0.00000000	          0.00000000	          0.00000000	          0.00000000	          0.22350937	          0.00000000	          0.00000000	          0.00000000	          0.00000000	
          3.51400000	        -13.41712031	        116.52576524	         -4.94047455	         -0.05826274	          0.00000000	         -0.00835644	         -0.00000000	          0.00000000	          0.00000000	          0.00000000	          0.00000000	          0.00000000	          0.00000000	          0.24064343	          0.00000000	          0.00000000	          0.00000000	          0.00000000	
          3.51500000	        -14.77114705	        126.47263835	         -5.46899020	         -0.07874004	          0.00000000	         -0.01100145	         -0.00000000	          0.00000000	          0.00000000	          0.00000000	          0.00000000	          0.00000000	          0.00000000	          0.25840440	          0.00000000	          0.00000000	          0.00000000	          0.00000000	
          3.51600000	        -16.18266847	        136.68282961	         -5.99249550	         -0.09895971	          0.00000000	         -0.01361565	         -0.00000000	          0.00000000	          0.00000000	          0.00000000	          0.00000000	          0.00000000	          0.00000000	          0.27677687	          0.00000000	          0.00000000	          0.00000000	          0.00000000	
          3.51700000	        -17.65140267	        147.14252547	         -6.50924537	         -0.11886565	          0.00000000	         -0.01619185	         -0.00000000	          0.00000000	          0.00000000	          0.00000000	          0.00000000	          0.00000000	          0.00000000	          0.29574105	          0.00000000	          0.00000000	          0.00000000	          0.00000000	
          3.51800000	        -19.17683917	        157.83619444	         -7.01750209	         -0.13840741	          0.00000000	         -0.01872350	         -0.00000000	          0.00000000	          0.00000000	          0.00000000	          0.00000000	          0.00000000	          0.00000000	          0.31527246	          0.00000000	          0.00000000	          0.00000000	          0.00000000	
          3.51900000	        -20.75822154	        168.74661587	         -7.51555831	         -0.15754034	          0.00000000	         -0.02120478	         -0.00000000	          0.00000000	          0.00000000	          0.00000000	          0.00000000	          0.00000000	          0.00000000	          0.33534197	          0.00000000	          0.00000000	          0.00000000	          0.00000000	
          3.52000000	        -22.39452672	        179.85494020	         -8.00175529	         -0.17622518	          0.00000000	         -0.02363054	         -0.00000000	          0.00000000	          0.00000000	          0.00000000	          0.00000000	          0.00000000	          0.00000000	          0.35591613	          0.00000000	          0.00000000	          0.00000000	          0.00000000	
          3.52100000	        -24.08444170	        191.14080275	         -8.47449844	         -0.19442777	          0.00000000	         -0.02599630	         -0.00000000	          0.00000000	          0.00000000	          0.00000000	          0.00000000	          0.00000000	          0.00000000	          0.37695731	          0.00000000	          0.00000000	          0.00000000	          0.00000000	
          3.52200000	        -25.82633773	        202.58250349	         -8.93226985	         -0.21211873	          0.00000000	         -0.02829824	         -0.00000000	          0.00000000	          0.00000000	          0.00000000	          0.00000000	          0.00000000	          0.00000000	          0.39842391	          0.00000000	          0.00000000	          0.00000000	          0.00000000	
